<mxfile host="Electron" agent="Mozilla/5.0 (Macintosh; Intel Mac OS X 10_15_7) AppleWebKit/537.36 (KHTML, like Gecko) draw.io/26.1.1 Chrome/132.0.6834.210 Electron/34.3.3 Safari/537.36" version="26.1.1">
  <diagram name="Page-1" id="jOqNXSZtbOvYi4SQ1b3N">
    <mxGraphModel dx="1114" dy="878" grid="1" gridSize="10" guides="1" tooltips="1" connect="1" arrows="1" fold="1" page="1" pageScale="1" pageWidth="827" pageHeight="1169" math="0" shadow="0">
      <root>
        <mxCell id="0" />
        <mxCell id="1" parent="0" />
        <mxCell id="C2W3aRD4tcx5V17Sz1x4-1" style="rounded=0;orthogonalLoop=1;jettySize=auto;html=1;entryX=0.5;entryY=0;entryDx=0;entryDy=0;endArrow=block;endFill=1;" edge="1" parent="1" source="C2W3aRD4tcx5V17Sz1x4-2" target="C2W3aRD4tcx5V17Sz1x4-7">
          <mxGeometry relative="1" as="geometry" />
        </mxCell>
        <mxCell id="C2W3aRD4tcx5V17Sz1x4-2" value="SupervisorJob&lt;div&gt;supervisorScope&lt;/div&gt;" style="rounded=0;whiteSpace=wrap;html=1;fillColor=#f8cecc;strokeColor=#b85450;" vertex="1" parent="1">
          <mxGeometry x="260" y="200" width="100" height="40" as="geometry" />
        </mxCell>
        <mxCell id="C2W3aRD4tcx5V17Sz1x4-3" style="edgeStyle=orthogonalEdgeStyle;rounded=0;orthogonalLoop=1;jettySize=auto;html=1;entryX=0.5;entryY=0;entryDx=0;entryDy=0;endArrow=block;endFill=1;" edge="1" parent="1" source="C2W3aRD4tcx5V17Sz1x4-4" target="C2W3aRD4tcx5V17Sz1x4-2">
          <mxGeometry relative="1" as="geometry" />
        </mxCell>
        <mxCell id="C2W3aRD4tcx5V17Sz1x4-4" value="Job&lt;div&gt;runBlocking&lt;/div&gt;" style="rounded=0;whiteSpace=wrap;html=1;fillColor=#dae8fc;strokeColor=#6c8ebf;" vertex="1" parent="1">
          <mxGeometry x="260" y="110" width="100" height="40" as="geometry" />
        </mxCell>
        <mxCell id="C2W3aRD4tcx5V17Sz1x4-5" style="rounded=0;orthogonalLoop=1;jettySize=auto;html=1;entryX=0.5;entryY=0;entryDx=0;entryDy=0;endArrow=block;endFill=1;exitX=0.5;exitY=1;exitDx=0;exitDy=0;" edge="1" parent="1">
          <mxGeometry relative="1" as="geometry">
            <mxPoint x="268" y="330" as="sourcePoint" />
            <mxPoint x="218" y="380" as="targetPoint" />
          </mxGeometry>
        </mxCell>
        <mxCell id="C2W3aRD4tcx5V17Sz1x4-6" value="Job&lt;div&gt;Coroutine1&lt;/div&gt;" style="rounded=0;whiteSpace=wrap;html=1;fillColor=#f5f5f5;fontColor=#333333;strokeColor=#666666;" vertex="1" parent="1">
          <mxGeometry x="200" y="290" width="100" height="40" as="geometry" />
        </mxCell>
        <mxCell id="C2W3aRD4tcx5V17Sz1x4-7" value="Job&lt;div&gt;Coroutine2&lt;/div&gt;" style="rounded=0;whiteSpace=wrap;html=1;fillColor=#dae8fc;strokeColor=#6c8ebf;" vertex="1" parent="1">
          <mxGeometry x="320" y="290" width="100" height="40" as="geometry" />
        </mxCell>
        <mxCell id="C2W3aRD4tcx5V17Sz1x4-8" style="rounded=0;orthogonalLoop=1;jettySize=auto;html=1;entryX=0.5;entryY=1;entryDx=0;entryDy=0;exitX=0.5;exitY=0;exitDx=0;exitDy=0;dashed=1;strokeColor=#FF3333;strokeWidth=2;" edge="1" parent="1" source="C2W3aRD4tcx5V17Sz1x4-9" target="C2W3aRD4tcx5V17Sz1x4-6">
          <mxGeometry relative="1" as="geometry" />
        </mxCell>
        <mxCell id="C2W3aRD4tcx5V17Sz1x4-9" value="Job&lt;div&gt;Coroutine3&lt;/div&gt;" style="rounded=0;whiteSpace=wrap;html=1;fillColor=#f5f5f5;fontColor=#333333;strokeColor=#666666;" vertex="1" parent="1">
          <mxGeometry x="150" y="380" width="100" height="40" as="geometry" />
        </mxCell>
        <mxCell id="C2W3aRD4tcx5V17Sz1x4-10" style="rounded=0;orthogonalLoop=1;jettySize=auto;html=1;entryX=0.58;entryY=-0.1;entryDx=0;entryDy=0;entryPerimeter=0;endArrow=block;endFill=1;" edge="1" parent="1" source="C2W3aRD4tcx5V17Sz1x4-2" target="C2W3aRD4tcx5V17Sz1x4-6">
          <mxGeometry relative="1" as="geometry" />
        </mxCell>
        <mxCell id="C2W3aRD4tcx5V17Sz1x4-11" value="예외 전파" style="text;html=1;align=center;verticalAlign=middle;whiteSpace=wrap;rounded=0;fontStyle=1" vertex="1" parent="1">
          <mxGeometry x="158" y="340" width="60" height="30" as="geometry" />
        </mxCell>
        <mxCell id="C2W3aRD4tcx5V17Sz1x4-12" value="" style="shape=mxgraph.mockup.markup.redX;fillColor=#ff0000;html=1;shadow=0;whiteSpace=wrap;strokeColor=none;" vertex="1" parent="1">
          <mxGeometry x="189" y="295" width="22" height="30" as="geometry" />
        </mxCell>
        <mxCell id="C2W3aRD4tcx5V17Sz1x4-13" value="" style="shape=mxgraph.mockup.markup.redX;fillColor=#ff0000;html=1;shadow=0;whiteSpace=wrap;strokeColor=none;" vertex="1" parent="1">
          <mxGeometry x="139" y="385" width="22" height="30" as="geometry" />
        </mxCell>
      </root>
    </mxGraphModel>
  </diagram>
</mxfile>
